<svg xmlns="http://www.w3.org/2000/svg" width="172" height="60" viewBox="0 0 172 60" fill="none">
<path d="M29.3942 2.29688H42.1378L39.7269 3.04934L34.1488 37.7333C33.5875 41.0186 32.3988 43.8581 30.5828 46.2519C28.7668 48.6292 26.4638 50.47 23.6738 51.7742C20.8838 53.0619 17.7719 53.7057 14.338 53.7057C11.2508 53.7057 8.54338 53.161 6.21562 52.0714C3.90437 50.9818 2.19569 49.3309 1.08959 47.1187C8.97003e-08 44.9065 -0.272398 42.1165 0.272398 38.7486H10.8711C10.7061 40.1189 10.7886 41.2745 11.1188 42.2155C11.4655 43.1565 12.0515 43.8747 12.877 44.3699C13.7024 44.8652 14.7342 45.1128 15.9724 45.1128C17.3096 45.1128 18.4983 44.8239 19.5383 44.2461C20.5784 43.6683 21.4369 42.8181 22.1137 41.6955C22.8071 40.5729 23.2941 39.2026 23.5748 37.5848L29.3942 2.29688Z" fill="white"/>
<path d="M59.6445 2.29688C64.7456 2.2969 68.9799 3.337 72.3477 5.41699C75.732 7.4971 78.1181 10.4769 79.5049 14.3564C80.8916 18.2195 81.1385 22.8339 80.2471 28.1992C79.3886 33.383 77.68 37.8324 75.1211 41.5469C72.5622 45.2448 69.2852 48.0844 65.29 50.0654C61.2949 52.0299 56.722 53.0127 51.5713 53.0127H34.6953C36.1803 43.5009 44.8336 34.0213 57.3291 28.9336L59.7881 36.5674L68.0322 20.4902L51.9541 12.2432L54.3838 19.7891C46.8464 22.8577 40.707 27.5243 36.6953 32.832L41.7646 2.29688H59.6445Z" fill="white"/>
<path d="M92.3116 25L89.8426 2.01575H92.6708L94.3766 20.7353H94.6011L102.592 2.01575H105.734L107.53 20.7353H107.754L115.655 2.01575H118.483L108.383 25H105.51L103.49 6.68443H103.31L95.1847 25H92.3116ZM122.722 25.3591C121.068 25.3591 119.703 24.9925 118.625 24.2593C117.548 23.5186 116.796 22.4861 116.37 21.1618C115.943 19.83 115.876 18.2813 116.168 16.5156C116.459 14.7499 117.039 13.1936 117.907 11.8469C118.775 10.4927 119.856 9.43775 121.151 8.68208C122.445 7.91893 123.867 7.53736 125.415 7.53736C126.313 7.53736 127.177 7.687 128.008 7.98627C128.838 8.28554 129.556 8.77186 130.162 9.44523C130.769 10.1111 131.191 10.994 131.431 12.0938C131.67 13.1936 131.655 14.5479 131.386 16.1565L131.206 17.2787H117.918L118.278 14.9893H128.872C129.044 14.0166 128.999 13.1487 128.737 12.3856C128.483 11.6224 128.038 11.0202 127.402 10.5787C126.773 10.1373 125.976 9.91659 125.011 9.91659C124.016 9.91659 123.088 10.1859 122.228 10.7246C121.368 11.2558 120.649 11.9292 120.073 12.7447C119.497 13.5528 119.138 14.3758 118.996 15.2137L118.682 17.1889C118.457 18.618 118.491 19.7552 118.783 20.6007C119.082 21.4461 119.602 22.0559 120.343 22.43C121.083 22.7966 122.011 22.9799 123.126 22.9799C123.837 22.9799 124.491 22.8826 125.09 22.6881C125.688 22.4861 126.223 22.1868 126.695 21.7903C127.166 21.3863 127.563 20.885 127.884 20.2864L130.308 21.0047C129.897 21.8726 129.317 22.6357 128.569 23.2941C127.828 23.9451 126.96 24.4538 125.965 24.8204C124.978 25.1796 123.896 25.3591 122.722 25.3591ZM133.722 25L137.538 2.01575H140.186L138.795 10.5002H139.019C139.259 10.2009 139.592 9.81932 140.018 9.35545C140.445 8.88409 141.017 8.46511 141.735 8.0985C142.453 7.72441 143.374 7.53736 144.496 7.53736C145.947 7.53736 147.163 7.90023 148.143 8.62597C149.131 9.35171 149.823 10.3805 150.22 11.7122C150.624 13.044 150.676 14.6152 150.377 16.4258C150.077 18.2514 149.505 19.8338 148.66 21.173C147.822 22.5048 146.789 23.5373 145.562 24.2705C144.343 24.9963 143.015 25.3591 141.578 25.3591C140.471 25.3591 139.614 25.1758 139.008 24.8092C138.409 24.4351 137.968 24.0124 137.684 23.541C137.407 23.0622 137.194 22.6657 137.044 22.3514H136.73L136.281 25H133.722ZM137.762 16.3809C137.553 17.6827 137.557 18.8312 137.774 19.8263C137.991 20.8139 138.421 21.5883 139.064 22.1494C139.708 22.7031 140.561 22.9799 141.623 22.9799C142.73 22.9799 143.703 22.6881 144.541 22.1045C145.379 21.5135 146.067 20.7204 146.606 19.7253C147.145 18.7227 147.519 17.6079 147.728 16.3809C147.923 15.1688 147.915 14.0765 147.706 13.1039C147.504 12.1237 147.077 11.3494 146.426 10.7807C145.783 10.2046 144.9 9.91659 143.778 9.91659C142.7 9.91659 141.746 10.1897 140.916 10.7359C140.093 11.2745 139.412 12.0302 138.873 13.0029C138.342 13.968 137.972 15.094 137.762 16.3809ZM158.824 25.3142C157.313 25.3142 156.056 25.0374 155.053 24.4838C154.05 23.9301 153.336 23.1707 152.909 22.2055C152.483 21.2404 152.375 20.1368 152.584 18.8948C152.734 17.9371 153.074 17.0879 153.605 16.3472C154.137 15.5991 154.817 14.907 155.648 14.271C156.478 13.6276 157.417 12.9841 158.465 12.3407L162.191 9.8717C162.909 9.44523 163.504 8.98884 163.975 8.50252C164.446 8.0162 164.75 7.38024 164.884 6.59465C164.974 6.01106 164.806 5.44618 164.379 4.90001C163.96 4.35383 163.335 4.08074 162.505 4.08074C161.921 4.08074 161.383 4.23038 160.889 4.52965C160.395 4.82145 159.984 5.19554 159.654 5.65193C159.333 6.10084 159.131 6.56472 159.048 7.04356C158.959 7.58225 159.018 8.12468 159.228 8.67086C159.437 9.21703 159.729 9.77817 160.103 10.3543C160.477 10.9229 160.859 11.5102 161.248 12.1163L169.643 25H166.455L159.497 14.4955C158.854 13.5228 158.27 12.64 157.746 11.8469C157.23 11.0538 156.841 10.272 156.579 9.50134C156.317 8.73071 156.258 7.89649 156.4 6.99866C156.564 5.96617 156.938 5.06086 157.522 4.28275C158.113 3.49716 158.861 2.88739 159.767 2.45344C160.679 2.01201 161.697 1.7913 162.819 1.7913C163.971 1.7913 164.925 2.01575 165.681 2.46466C166.444 2.90609 166.987 3.49342 167.308 4.22664C167.638 4.95238 167.727 5.74171 167.578 6.59465C167.398 7.69448 166.964 8.64841 166.276 9.45645C165.587 10.257 164.72 11.0089 163.672 11.7122L158.555 15.124C157.395 15.8946 156.568 16.639 156.074 17.3573C155.588 18.0681 155.322 18.5806 155.277 18.8948C155.158 19.6131 155.233 20.2827 155.502 20.9037C155.779 21.5247 156.224 22.026 156.837 22.4075C157.458 22.7891 158.225 22.9799 159.138 22.9799C160.006 22.9799 160.881 22.7966 161.764 22.43C162.647 22.0559 163.478 21.5172 164.256 20.8139C165.041 20.1106 165.711 19.2652 166.265 18.2776C166.818 17.29 167.196 16.1789 167.398 14.9444H169.957C169.702 16.4707 169.328 17.7127 168.835 18.6704C168.348 19.6205 167.847 20.3687 167.331 20.9149C166.822 21.4536 166.41 21.8726 166.096 22.1719C165.984 22.2841 165.864 22.3963 165.737 22.5085C165.61 22.6208 165.49 22.733 165.378 22.8452C164.503 23.6757 163.466 24.2967 162.269 24.7082C161.072 25.1122 159.924 25.3142 158.824 25.3142ZM102.513 36.6933C102.551 35.7581 102.277 35.0361 101.694 34.5273C101.118 34.0185 100.246 33.7642 99.079 33.7642C98.2859 33.7642 97.5976 33.8764 97.014 34.1008C96.4304 34.3178 95.9628 34.6208 95.6111 35.0099C95.267 35.3915 95.0537 35.8329 94.9714 36.3342C94.8891 36.7457 94.9153 37.1048 95.05 37.4116C95.1922 37.7183 95.4129 37.9839 95.7121 38.2084C96.0189 38.4254 96.3818 38.6161 96.8008 38.7807C97.2197 38.9379 97.6649 39.0725 98.1363 39.1848L100.111 39.6786C101.077 39.903 101.945 40.2023 102.715 40.5764C103.493 40.9505 104.144 41.4106 104.668 41.9568C105.199 42.503 105.573 43.1464 105.79 43.8871C106.007 44.6278 106.037 45.477 105.88 46.4347C105.641 47.8413 105.083 49.0608 104.208 50.0933C103.332 51.1183 102.184 51.9151 100.762 52.4838C99.3408 53.0449 97.6948 53.3255 95.8244 53.3255C93.9689 53.3255 92.4014 53.0412 91.122 52.4725C89.8426 51.9039 88.9111 51.0622 88.3276 49.9474C87.7515 48.8251 87.5794 47.4372 87.8113 45.7838H92.5137C92.4314 46.5544 92.5436 47.1978 92.8503 47.7141C93.1646 48.2228 93.6322 48.6082 94.2532 48.87C94.8742 49.1244 95.6037 49.2516 96.4416 49.2516C97.2721 49.2516 98.0091 49.1319 98.6525 48.8925C99.3034 48.653 99.8309 48.3201 100.235 47.8936C100.639 47.4672 100.886 46.9771 100.976 46.4235C101.065 45.9072 100.987 45.4733 100.74 45.1216C100.493 44.77 100.097 44.4707 99.5503 44.2238C99.0116 43.9694 98.342 43.7449 97.5415 43.5504L95.1398 42.9219C93.2843 42.4506 91.8814 41.7136 90.9312 40.7111C89.981 39.7085 89.6406 38.358 89.91 36.6596C90.1494 35.268 90.7292 34.0522 91.6495 33.0122C92.5773 31.9648 93.7444 31.153 95.151 30.5769C96.5651 29.9933 98.1101 29.7015 99.786 29.7015C101.492 29.7015 102.932 29.997 104.107 30.5881C105.281 31.1717 106.138 31.9872 106.677 33.0347C107.215 34.0821 107.38 35.3017 107.171 36.6933H102.513ZM113.802 43.0342L112.142 53H107.372L111.188 30.0158H115.823L114.386 38.8032H114.577C115.131 37.7857 115.89 36.9888 116.855 36.4127C117.82 35.8292 118.961 35.5374 120.278 35.5374C121.475 35.5374 122.474 35.7992 123.275 36.323C124.083 36.8392 124.655 37.5836 124.992 38.5563C125.328 39.5214 125.384 40.6774 125.16 42.0241L123.319 53H118.55L120.233 42.8771C120.405 41.8146 120.267 40.9879 119.818 40.3968C119.376 39.8058 118.673 39.5102 117.708 39.5102C117.057 39.5102 116.459 39.6486 115.912 39.9255C115.366 40.2023 114.906 40.6063 114.532 41.1375C114.165 41.6613 113.922 42.2935 113.802 43.0342ZM126.427 53L129.3 35.7618H134.081L131.208 53H126.427ZM132.185 33.5173C131.474 33.5173 130.886 33.2816 130.423 32.8102C129.966 32.3314 129.779 31.7628 129.861 31.1044C129.944 30.431 130.266 29.8624 130.827 29.3985C131.388 28.9271 132.024 28.6915 132.735 28.6915C133.445 28.6915 134.025 28.9271 134.474 29.3985C134.923 29.8624 135.11 30.431 135.035 31.1044C134.96 31.7628 134.642 32.3314 134.081 32.8102C133.528 33.2816 132.895 33.5173 132.185 33.5173ZM133.362 59.4643L137.335 35.7618H142.049L141.566 38.6573H141.779C142.064 38.1934 142.441 37.7221 142.913 37.2432C143.392 36.7569 143.986 36.3529 144.697 36.0312C145.408 35.702 146.242 35.5374 147.2 35.5374C148.464 35.5374 149.568 35.8666 150.511 36.525C151.453 37.1759 152.134 38.1597 152.553 39.4766C152.98 40.7859 153.028 42.4281 152.699 44.4034C152.385 46.3262 151.805 47.9498 150.96 49.274C150.122 50.5908 149.115 51.5897 147.941 52.2705C146.773 52.9439 145.535 53.2806 144.226 53.2806C143.298 53.2806 142.535 53.1272 141.936 52.8204C141.345 52.5137 140.885 52.1284 140.556 51.6645C140.227 51.1931 139.995 50.718 139.86 50.2392H139.681L138.154 59.4643H133.362ZM140.578 44.3809C140.414 45.4059 140.406 46.3 140.556 47.0632C140.713 47.8263 141.027 48.4211 141.499 48.8476C141.97 49.2666 142.591 49.476 143.362 49.476C144.14 49.476 144.832 49.2628 145.438 48.8363C146.044 48.4024 146.549 47.8039 146.953 47.0407C147.357 46.2701 147.645 45.3835 147.817 44.3809C147.974 43.3858 147.978 42.5104 147.828 41.7548C147.679 40.9991 147.372 40.408 146.908 39.9816C146.444 39.5551 145.816 39.3419 145.023 39.3419C144.252 39.3419 143.56 39.5476 142.946 39.9591C142.34 40.3706 141.835 40.9542 141.431 41.7099C141.027 42.4656 140.743 43.3559 140.578 44.3809Z" fill="white"/>
</svg>